<?xml version="1.0" encoding="utf-8"?>
<!-- Generator: Adobe Illustrator 22.1.0, SVG Export Plug-In . SVG Version: 6.00 Build 0)  -->
<svg version="1.1" id="Layer_1" xmlns="http://www.w3.org/2000/svg" xmlns:xlink="http://www.w3.org/1999/xlink" x="0px" y="0px"
	 viewBox="0 0 300 300" style="enable-background:new 0 0 300 300;" xml:space="preserve">
<style type="text/css">
	.st0{fill:#FFFFFF;}
	.st1{fill:#49B1E4;}
</style>
<g>
	<path class="st0" d="M45,123.1h10.3v9h0.3c2.8-3.4,6.1-6,9.9-7.8c3.7-1.9,7.9-2.8,12.4-2.8c4.8,0,9.3,0.8,13.3,2.4
		c4,1.6,7.4,3.9,10.3,6.8c2.8,2.9,5,6.4,6.6,10.3c1.6,4,2.4,8.3,2.4,13c0,4.7-0.8,9-2.4,13c-1.6,4-3.8,7.4-6.5,10.3
		c-2.8,2.9-6.1,5.2-9.9,6.8c-3.8,1.6-7.9,2.4-12.2,2.4c-5.6,0-10.4-1.2-14.6-3.6c-4.2-2.4-7.3-5.4-9.2-8.9h-0.3v41.1H45V123.1z
		 M55.3,154c0,3.3,0.5,6.3,1.5,9.1c1,2.8,2.5,5.2,4.4,7.3c1.9,2.1,4.3,3.7,6.9,4.9c2.7,1.2,5.7,1.8,9.1,1.8c3.4,0,6.4-0.6,9.1-1.8
		c2.7-1.2,5-2.8,6.9-4.9c1.9-2.1,3.4-4.5,4.4-7.3c1-2.8,1.5-5.8,1.5-9.1c0-3.3-0.5-6.3-1.5-9.1c-1-2.8-2.5-5.2-4.4-7.3
		c-1.9-2.1-4.3-3.7-6.9-4.9c-2.7-1.2-5.7-1.8-9.1-1.8c-3.4,0-6.4,0.6-9.1,1.8c-2.7,1.2-5,2.8-6.9,4.9c-1.9,2.1-3.4,4.5-4.4,7.3
		C55.8,147.7,55.3,150.8,55.3,154z"/>
	<path class="st1" d="M177.4,185h-10.2l-17.6-47.6h-0.3L133.7,185h-10.6l-20.1-61.9h11.4l14.2,47.6h0.3l16-47.6h10.8l16.3,47.6h0.3
		l14-47.6h11.1L177.4,185z"/>
	<path class="st0" d="M245.1,174h-0.3c-1.9,3.5-5,6.5-9.2,8.9c-4.2,2.4-9.1,3.6-14.6,3.6c-4.3,0-8.4-0.8-12.2-2.4
		c-3.8-1.6-7.1-3.9-9.9-6.8c-2.8-2.9-5-6.4-6.5-10.3c-1.6-4-2.4-8.3-2.4-13c0-4.7,0.8-9,2.4-13c1.6-4,3.8-7.4,6.6-10.3
		c2.8-2.9,6.2-5.2,10.3-6.8c4-1.6,8.4-2.4,13.3-2.4c4.5,0,8.6,0.9,12.4,2.8c3.7,1.9,7,4.5,9.9,7.8h0.3V85h10.3v100h-10.3V174z
		 M245.1,154c0-3.3-0.5-6.3-1.5-9.1c-1-2.8-2.5-5.2-4.4-7.3c-1.9-2.1-4.3-3.7-6.9-4.9c-2.7-1.2-5.7-1.8-9.1-1.8
		c-3.4,0-6.4,0.6-9.1,1.8c-2.7,1.2-5,2.8-6.9,4.9c-1.9,2.1-3.4,4.5-4.4,7.3c-1,2.8-1.5,5.8-1.5,9.1c0,3.3,0.5,6.3,1.5,9.1
		c1,2.8,2.5,5.2,4.4,7.3c1.9,2.1,4.3,3.7,6.9,4.9c2.7,1.2,5.7,1.8,9.1,1.8c3.4,0,6.4-0.6,9.1-1.8c2.7-1.2,5-2.8,6.9-4.9
		c1.9-2.1,3.4-4.5,4.4-7.3C244.6,160.3,245.1,157.3,245.1,154z"/>
</g>
</svg>
